<svg xmlns="http://www.w3.org/2000/svg" viewBox="0 0 490.667 490.667">
    <g fill="#b1b1b1">
        <path d="M448 128h-67.627l-39.04-42.667H192v64h-64v64H64v213.333c0 23.467 19.2 42.667 42.667 42.667H448c23.467 0 42.667-19.2 42.667-42.667v-256C490.667 147.2 471.467 128 448 128zM277.333 405.333c-58.88 0-106.667-47.787-106.667-106.667S218.453 192 277.333 192 384 239.787 384 298.667s-47.787 106.666-106.667 106.666z"/>
        <path d="M64 192h42.667v-64h64V85.333h-64v-64H64v64H0V128h64zM277.333 230.4c-37.76 0-68.267 30.507-68.267 68.267 0 37.76 30.507 68.267 68.267 68.267 37.76 0 68.267-30.507 68.267-68.267S315.093 230.4 277.333 230.4z"/>
    </g>
</svg>
