<svg version="1.1" id="Warstwa_1" xmlns="http://www.w3.org/2000/svg" x="0" y="0" viewBox="0 0 100 80" xml:space="preserve"><style>@keyframes animate{0%{stroke-dashoffset:295}50%{stroke-dashoffset:0}to{stroke-dashoffset:-295}}.st0{fill:none;stroke:#f24167;stroke-width:2;stroke-miterlimit:10}</style><path class="st0" d="M64.5 6.1l-6.7 11.5 9.6 2.5-20.7 10.8c-1.5-4.5-4.2-7.8-8-9.2-9-3.3-20.5 5.4-25.7 19.5s-2.2 28.2 6.8 31.6c9 3.3 20.5-5.4 25.7-19.5 1.3-3.6 2.1-7.2 2.4-10.7L68 32.1 61.6 43l9.6 5.6 21-35.3-27.7-7.2z" style="animation:animate 4s ease-in infinite" stroke-width="1.5" stroke-dasharray="295" stroke-linecap="round"/><path class="st0" d="M37.6 50.3c-2.7 7.2-8.6 11.7-13.2 10-4.6-1.7-6.2-9-3.5-16.2 2.7-7.2 8.6-11.7 13.2-10 4.6 1.7 6.2 9 3.5 16.2z" stroke-width="1.5"/></svg>