<svg version="1.1" id="Warstwa_1" xmlns="http://www.w3.org/2000/svg" x="0" y="0" viewBox="0 0 500 500" xml:space="preserve">
    <style>
        .st0{fill:#ee1f61}
    </style>
    <path id="XMLID_28_" class="heart" d="M396.9 228.1c-37.8-42.3-102.1-48.2-147.3-17-72.7-50-173.3.1-173.6 84.9 0 61.1 33.9 110.8 83.4 148.3 40 30.3 80.2 45.1 84.6 46.7 3.4 1.2 7.6 1.3 11.1 0 4.4-1.6 44.6-16.4 84.6-46.7 49.5-37.5 83.4-87.2 83.4-148.3 0-24.9-9.4-49-26.2-67.9zM249.6 470.4C230.2 463 98.2 408.6 98.2 296.1c.3-71.1 87.8-109.6 144.2-63.3 4.1 3.4 10.3 3.4 14.4 0 57-46.7 144-7.2 144.2 63.3 0 112.4-131.8 166.8-151.4 174.3z"/>
    <path id="XMLID_2_" class="heart" d="M353.8 256.6c-5.2 3.1-6.8 9.6-3.6 14.6 9.5 14.6 11 36.4 4.2 59.8-2 6.8 3.4 13.4 10.7 13.4 4.9 0 9.3-3.1 10.7-7.8 8.5-29.6 6.1-56.8-6.8-76.7-3.2-4.8-10-6.4-15.2-3.3z"/>
    <path id="XMLID_1_" class="st0 heart" d="M334.5 234.2c-5.5-1.7-11.5-2.8-17.7-3.2-6.1-.4-11.4 4-11.8 9.9-.4 5.8 4.2 10.9 10.3 11.3 4.4.3 8.6 1 12.4 2.2 5.8 1.8 12.1-1.3 13.9-6.8 1.9-5.6-1.3-11.6-7.1-13.4z"/>
    <g id="XMLID_6_">
        <path id="XMLID_24_" class="st0" d="M258.5 84l-8.9 8.5-8.9-8.5 8.9 8.3z"/>
        <path id="XMLID_23_" class="st0 arrow-up" d="M318.2 157.9c-22.9-21.9-45.7-43.6-68.5-65.5l8.8-8.4-8.9 8.3-8.9-8.3 8.8 8.4c-22.8 21.9-45.7 43.7-68.5 65.6-11.4 11-29.2-6.1-17.8-17.1 25.8-24.8 51.7-49.5 77.5-74.3 4.8-4.6 13-4.6 17.8 0 25.8 24.7 51.7 49.5 77.5 74.2 11.4 11.1-6.3 28.1-17.8 17.1z"/>
        <path id="XMLID_17_" class="st0" d="M240.7 84l8.9 8.3-.1.1-8.8-8.4z"/>
        <path id="XMLID_18_" class="st0" d="M258.5 84l-8.8 8.4-.1-.1 8.9-8.3z"/>
    </g>
    <g id="XMLID_7_">
        <path id="XMLID_22_" class="st0" d="M258.5 29.2l-8.9 8.5-8.9-8.5 8.9 8.5z"/>
        <path id="XMLID_20_" class="st0 arrow-up" d="M318.2 103.4l-68.6-65.7 8.9-8.5-8.9 8.5-8.9-8.5 8.9 8.5-68.6 65.7c-11.4 11-29.2-6.1-17.8-17 25.8-24.7 51.7-49.5 77.5-74.2 4.8-4.6 13-4.6 17.8 0 25.8 24.7 51.7 49.5 77.5 74.2 11.4 10.9-6.3 27.9-17.8 17z"/>
        <path id="XMLID_16_" class="st0" d="M249.6 37.7l-8.9-8.5z"/>
        <path id="XMLID_15_" class="st0" d="M258.5 29.2l-8.9 8.5z"/>
    </g>
</svg>
