<?xml version="1.0" encoding="utf-8"?>
<!-- Generator: Adobe Illustrator 19.0.0, SVG Export Plug-In . SVG Version: 6.00 Build 0)  -->
<svg version="1.1" id="Warstwa_1" xmlns="http://www.w3.org/2000/svg" xmlns:xlink="http://www.w3.org/1999/xlink" x="0px" y="0px"
	 viewBox="0 0 500 500" style="enable-background:new 0 0 500 500;" xml:space="preserve">
<style type="text/css">
	 @-webkit-keyframes heartbeat {
	  0% {
	    -webkit-transform: scale3d(1, 1, 1);
	            transform: scale3d(1, 1, 1);
	  }

	  50% {
	    -webkit-transform: scale3d(1.2, 1.2, 1);
	            transform: scale3d(1.2, 1.2, 1);
	  }

	  100% {
	    -webkit-transform: scale3d(1, 1, 1);
	            transform: scale3d(1, 1, 1);
	  }
	}
@keyframes heartbeat {
	  0% {
	    -webkit-transform: scale3d(1, 1, 1);
	            transform: scale3d(1, 1, 1);
	  }

	  50% {
	    -webkit-transform: scale3d(1.2, 1.2, 1);
	            transform: scale3d(1.2, 1.2, 1);
	  }

	  100% {
	    -webkit-transform: scale3d(1, 1, 1);
	            transform: scale3d(1, 1, 1);
	  }
	}
	.st0{fill:#ee1f61;} .heart{transform-origin: center;
    animation: heartbeat 1s linear infinite;}
</style>
<path id="XMLID_28_" class="heart" d="M396.9,228.1c-37.8-42.3-102.1-48.2-147.3-17C176.9,161.1,76.3,211.2,76,296c0,61.1,33.9,110.8,83.4,148.3
	c40,30.3,80.2,45.1,84.6,46.7c3.4,1.2,7.6,1.3,11.1,0c4.4-1.6,44.6-16.4,84.6-46.7c49.5-37.5,83.4-87.2,83.4-148.3
	C423.1,271.1,413.7,247,396.9,228.1L396.9,228.1z M249.6,470.4C230.2,463,98.2,408.6,98.2,296.1c0.3-71.1,87.8-109.6,144.2-63.3
	c4.1,3.4,10.3,3.4,14.4,0c57-46.7,144-7.2,144.2,63.3C401,408.5,269.2,462.9,249.6,470.4L249.6,470.4z"/>
<path id="XMLID_2_" class="heart" d="M353.8,256.6c-5.2,3.1-6.8,9.6-3.6,14.6c9.5,14.6,11,36.4,4.2,59.8c-2,6.8,3.4,13.4,10.7,13.4
	c4.9,0,9.3-3.1,10.7-7.8c8.5-29.6,6.1-56.8-6.8-76.7C365.8,255.1,359,253.5,353.8,256.6L353.8,256.6z"/>
<path id="XMLID_1_" class="st0" d="M334.5,234.2c-5.5-1.7-11.5-2.8-17.7-3.2c-6.1-0.4-11.4,4-11.8,9.9c-0.4,5.8,4.2,10.9,10.3,11.3
	c4.4,0.3,8.6,1,12.4,2.2c5.8,1.8,12.1-1.3,13.9-6.8C343.5,242,340.3,236,334.5,234.2L334.5,234.2z"/>
<g id="XMLID_6_">
	<polygon id="XMLID_24_" class="st0" points="258.5,84 249.6,92.5 240.7,84 249.6,92.3 	"/>
	<path id="XMLID_23_" class="st0" d="M318.2,157.9c-22.9-21.9-45.7-43.6-68.5-65.5l8.8-8.4l-8.9,8.3l-8.9-8.3l8.8,8.4
		c-22.8,21.9-45.7,43.7-68.5,65.6c-11.4,11-29.2-6.1-17.8-17.1c25.8-24.8,51.7-49.5,77.5-74.3c4.8-4.6,13-4.6,17.8,0
		c25.8,24.7,51.7,49.5,77.5,74.2C347.4,151.9,329.7,168.9,318.2,157.9z"/>
	<path id="XMLID_17_" class="st0" d="M240.7,84l8.9,8.3c0,0-0.1,0.1-0.1,0.1L240.7,84z"/>
	<path id="XMLID_18_" class="st0" d="M258.5,84l-8.8,8.4c0,0-0.1-0.1-0.1-0.1L258.5,84z"/>
</g>
<g id="XMLID_7_">
	<polygon id="XMLID_22_" class="st0" points="258.5,29.2 249.6,37.7 240.7,29.2 249.6,37.7 	"/>
	<path id="XMLID_20_" class="st0" d="M318.2,103.4l-68.6-65.7l8.9-8.5l-8.9,8.5l-8.9-8.5l8.9,8.5L181,103.4
		c-11.4,11-29.2-6.1-17.8-17c25.8-24.7,51.7-49.5,77.5-74.2c4.8-4.6,13-4.6,17.8,0c25.8,24.7,51.7,49.5,77.5,74.2
		C347.4,97.3,329.7,114.3,318.2,103.4z"/>
	<polygon id="XMLID_16_" class="st0" points="249.6,37.7 249.6,37.7 240.7,29.2 	"/>
	<polygon id="XMLID_15_" class="st0" points="258.5,29.2 249.6,37.7 249.6,37.7 	"/>
</g>
</svg>
