<svg height="512pt" viewBox="-4 0 512 512" width="512pt" xmlns="http://www.w3.org/2000/svg"><path d="M494.934 59.734h-51.2V8.535a8.534 8.534 0 10-17.066 0v51.2H85.332c-18.852 0-34.133 15.28-34.133 34.132V435.2H8.535a8.534 8.534 0 100 17.067H51.2v51.199a8.534 8.534 0 1017.067 0v-51.2h341.336c18.851 0 34.132-15.28 34.132-34.132V76.8h51.2c4.71 0 8.53-3.82 8.53-8.535 0-4.711-3.82-8.532-8.53-8.532zm-68.266 358.399c0 9.426-7.64 17.066-17.066 17.066H68.266V93.867c0-9.426 7.64-17.066 17.066-17.066h341.336zm0 0"/><path fill="#f24167" d="M119.465 401.066h256c9.426 0 17.07-7.64 17.07-17.066V128c0-9.426-7.644-17.066-17.07-17.066h-256c-9.422 0-17.067 7.64-17.067 17.066v256c0 9.426 7.645 17.066 17.067 17.066zm0-17.066v-30.898l68.398-69.66 35.164 35.84-24.199 24.613a8.535 8.535 0 003.758 14.61 8.53 8.53 0 008.39-2.665l113.426-115.082 51.063 51.68V384zm256-256v140.16l-42.016-42.523a12.672 12.672 0 00-9.09-3.801 12.662 12.662 0 00-9.07 3.855l-80.281 81.45-38.094-38.836a12.696 12.696 0 00-9.094-3.801 12.713 12.713 0 00-9.074 3.86l-59.281 60.374V128zm0 0"/><path d="M187.734 238.934c23.563 0 42.664-19.102 42.664-42.668 0-23.563-19.101-42.664-42.664-42.664-23.566 0-42.668 19.101-42.668 42.664.028 23.554 19.114 42.64 42.668 42.668zm0-68.266c14.137 0 25.598 11.46 25.598 25.598 0 14.14-11.46 25.601-25.598 25.601-14.14 0-25.601-11.46-25.601-25.601 0-14.137 11.46-25.598 25.601-25.598zm0 0"/></svg>