<svg xmlns="http://www.w3.org/2000/svg" viewBox="-223 25 512 512">
    <path d="M289 178.9c0 43.3-16.1 82.9-50.8 124.7-31 37.4-75.5 75.4-127.1 119.3-17.6 15-37.6 32-58.3 50.2-5.5 4.8-12.5 7.4-19.8 7.4s-14.3-2.6-19.8-7.4C-7.5 455-27.4 438-45 423l-.1-.1c-51.6-44-96.1-81.9-127.1-119.3-34.6-41.8-50.8-81.4-50.8-124.7 0-42.1 14.4-80.9 40.6-109.3C-155.9 40.8-119.5 25-80 25c29.6 0 56.6 9.3 80.4 27.8 12 9.3 22.9 20.7 32.5 34 9.6-13.3 20.5-24.7 32.5-34C89.3 34.3 116.4 25 146 25c39.5 0 75.9 15.8 102.4 44.6C274.6 98 289 136.8 289 178.9z" fill="#f24167"/>
</svg>
