<svg xmlns="http://www.w3.org/2000/svg" width="49.861" height="49.861"><path fill="#fff" d="M38.834 41.747c.181.555-.527 1.154-1.028.791-.266-.193-.532-.388-.798-.58l-11.575-8.409-.445.323c-3.977 2.889-7.953 5.776-11.929 8.666-.501.363-1.209-.236-1.028-.791l.305-.938 4.411-13.573-.331-.239L4.488 18.33c-.536-.39-.392-1.305.354-1.305H20.064l.138-.424 4.525-13.926c.019-.231.168-.398.363-.493a.62.62 0 01.222-.07c.038-.006.075-.012.113-.012.052-.001.1.006.151.016a.76.76 0 01.107.026.68.68 0 01.103.047c.191.096.335.262.353.49l.273.84 4.389 13.509h15.222c.747 0 .891.915.354 1.305l-.798.58c-3.821 2.776-7.642 5.551-11.461 8.327l.158.487c1.521 4.671 3.038 9.346 4.558 14.02zM36.487 9.662l-1.285 3.958c-.091.277.264.578.515.396l3.382-2.456 3.382 2.456c.251.182.604-.118.516-.396-.43-1.32-.857-2.639-1.286-3.958l3.325-2.415c.268-.195.195-.652-.178-.652h-4.143l-1.263-3.888c-.001-.007-.006-.013-.007-.02l-.006-.02-.002-.003a.284.284 0 00-.069-.122l-.014-.013a.341.341 0 00-.075-.054.32.32 0 00-.056-.026c-.019-.007-.039-.01-.059-.014-.021-.003-.041-.007-.063-.007a.312.312 0 00-.08.009.838.838 0 00-.042.01.359.359 0 00-.066.031.33.33 0 00-.067.049c-.005.006-.011.01-.016.017a.278.278 0 00-.07.124v.001l-.001.003c-.003.013-.011.024-.012.038l-1.263 3.886h-4.143c-.373 0-.444.457-.177.652l3.323 2.414zm13.036 19.222H45.38l-1.263-3.888c-.001-.011-.008-.019-.011-.03l-.003-.009-.001-.002a.286.286 0 00-.07-.125l-.013-.012a.329.329 0 00-.076-.055.273.273 0 00-.055-.025c-.019-.006-.039-.01-.059-.014-.021-.003-.042-.007-.063-.007a.368.368 0 00-.254.097l-.018.018a.27.27 0 00-.068.12l-.002.004-.007.022c-.001.006-.005.01-.005.016l-1.264 3.889h-4.143c-.373 0-.444.457-.177.651l3.324 2.416-1.285 3.959c-.091.276.264.576.515.395l3.382-2.457c1.128.819 2.254 1.639 3.382 2.457.251.184.604-.117.516-.395-.43-1.32-.857-2.64-1.286-3.959l3.325-2.416c.267-.193.195-.65-.178-.65zM31.189 40.288h-4.143l-1.263-3.889c-.001-.011-.008-.02-.01-.03l-.003-.009-.001-.001a.278.278 0 00-.071-.125l-.012-.013a.36.36 0 00-.133-.081c-.017-.006-.034-.009-.053-.013-.024-.004-.046-.008-.07-.007a.427.427 0 00-.123.02.362.362 0 00-.06.028.339.339 0 00-.072.052l-.014.014a.28.28 0 00-.069.122l-.002.003-.006.018c-.002.008-.006.013-.007.021l-1.263 3.89h-4.143c-.373 0-.444.457-.177.65l3.325 2.415-1.286 3.959c-.09.277.264.577.515.396l3.382-2.456 3.382 2.456c.251.183.604-.117.516-.396-.43-1.318-.857-2.639-1.286-3.959l3.325-2.415c.268-.193.195-.65-.178-.65zM12.034 29.532c.268-.194.196-.651-.177-.651H7.714l-1.262-3.885a.284.284 0 00-.086-.169l-.01-.01a.362.362 0 00-.134-.082c-.018-.006-.036-.009-.054-.013-.024-.004-.046-.008-.07-.007a.415.415 0 00-.181.046.359.359 0 00-.078.056l-.008.008a.29.29 0 00-.087.171L4.482 28.88H.338c-.373 0-.444.457-.177.651l3.324 2.415-1.286 3.959c-.09.276.264.576.515.395l3.383-2.457c1.127.819 2.254 1.639 3.383 2.457.251.183.604-.117.515-.395l-1.286-3.958c1.107-.805 2.215-1.611 3.325-2.415zm-1.481-19.87L9.267 13.62c-.09.277.264.578.515.396l3.382-2.456 3.382 2.456c.251.182.604-.118.515-.396l-1.286-3.958c1.109-.805 2.216-1.611 3.325-2.415.268-.195.196-.652-.177-.652H14.78a9015.23 9015.23 0 01-1.263-3.888c-.001-.008-.005-.014-.007-.021l-.006-.018-.002-.003a.29.29 0 00-.069-.122l-.014-.014a.35.35 0 00-.073-.053.306.306 0 00-.115-.041.338.338 0 00-.144.002c-.014.003-.027.005-.041.01a.322.322 0 00-.068.031.337.337 0 00-.065.047l-.019.019a.294.294 0 00-.068.119c0 .003-.001.003-.002.005l-.008.023c-.001.006-.005.01-.005.016l-1.263 3.888H7.405c-.373 0-.444.457-.177.652l3.325 2.415z"/></svg>