<svg xmlns="http://www.w3.org/2000/svg" viewBox="-709 191 500 500"><path d="M-381.3 245c-2.9-7.9-3.5-14.7-3.6-16.1l-3.8-37.9-27 25.5c-7 6.6-41.3 14.1-67.8 16.8l-11.3 1.8c-33.6 5.3-53.9 16.1-64 34.1-8.9 15.9-8.4 34.8-7.8 54.8v.8c.1 4.9.3 9.9.3 15.3l.5 16.8c-10.8 7.9-13.3 25.3-7.2 50.5 3.1 12.6 12 23.5 21.8 26.8 4.5 12.1 16.3 40.4 36.8 62.5-43.5 11.5-82.6 35.3-110.5 67.4-29.4 33.9-45 74.4-45 117.2v9.7h434.3v-9.7c0-42.7-15.5-83.1-44.8-117-27.7-32-66.7-55.9-110.1-67.4 14.8-15.7 27.2-37.1 35.3-60.5 10.4-4.6 18.8-15.3 22.1-28.3 1.6-6.3 4.2-16.9 4.2-27l-15.4-4.4s-4 10.1-8.2 26.5c-2.6 10.5-9.9 16.4-15.1 15.5l-1.4-.3-.5 1.4c-3.8 11.4-18.2 50.3-45.6 72.4-3.2 2.6-6.5 4.8-9.6 6.6-5.2 3-10.7 5.2-16.4 6.4-4.1.9-7.8 1.4-11.4 1.4-3.6 0-7.4-.5-11.6-1.4-5.8-1.3-11.4-3.4-16.6-6.4-3.1-1.8-6.3-4-9.6-6.7-18.3-14.7-35.1-41.7-44.9-72.3l-.5-1.4-1.5.3c-4.8 1-14-5.3-16.7-16.2-3.3-13.1-3.9-28.7.3-29.9 1.3-.4 2.8-.1 4.5.8l2.5 1.3v-34.8c0-5.9-.2-11.6-.3-17-1.1-40.2-1.7-62.4 66-69.6l7.4-.8-.8-.3c16-2.1 54-7.9 69.4-19.1.5 4.8 2.2 14.3 6.9 24.6l.3.6.6.2m-99 253.9c13.8 9.4 28.6 14.2 43.9 14.2 15.2 0 29.9-4.7 43.7-14.1 10.1 2 19.7 4.6 28.7 7.7-17 23.1-44.1 36.8-72.8 36.8-28.7 0-55.7-13.7-72.7-36.8 9.2-3.2 19-5.8 29.2-7.8zm156.1 159V631c0-5.4-4.4-9.7-9.7-9.7-5.4 0-9.7 4.4-9.7 9.7v40.4h-186.2V631c0-5.4-4.4-9.7-9.7-9.7-5.4 0-9.7 4.4-9.7 9.7v40.4h-84.9c3.9-60.7 44.4-115.6 106.2-143.9 20.5 30.6 54.5 48.9 91.1 48.9 36.6 0 70.6-18.2 91.1-48.9 61.9 28.3 102.4 83.2 106.3 143.9H-340z"/><path d="M-283.2 376c-1.5 0-3-.5-4.3-1.4l-45-32.7-45 32.7c-2.5 1.8-6 1.8-8.5 0s-3.6-5.1-2.6-8.1l17.2-52.9-45-32.7c-2.5-1.8-3.6-5.1-2.6-8.1s3.8-5 6.9-5h55.6l17.2-52.9c1-3 3.8-5 6.9-5s5.9 2 6.9 5l17.2 52.9h55.6c3.1 0 5.9 2 6.9 5s-.1 6.3-2.6 8.1l-45 32.7 17.2 52.9c1 3-.1 6.3-2.6 8.1-1.5.9-3 1.4-4.4 1.4zm-49.3-50.3c1.5 0 3 .5 4.3 1.4l31.2 22.7-11.9-36.7c-1-3 .1-6.3 2.6-8.1l31.2-22.7h-38.6c-3.1 0-5.9-2-6.9-5l-11.9-36.7-11.9 36.7c-1 3-3.8 5-6.9 5h-38.6l31.2 22.7c2.5 1.8 3.6 5.1 2.6 8.1l-11.9 36.7 31.2-22.7c1.3-.9 2.8-1.4 4.3-1.4z" fill="#ee1f61"/></svg>