<svg xmlns="http://www.w3.org/2000/svg" viewBox="0 0 512 512"><path fill="#fff" d="M256 0C114.848 0 0 114.848 0 256s114.848 256 256 256 256-114.848 256-256S397.152 0 256 0zM128 192c0-17.632 14.368-32 32-32s32 14.368 32 32-14.368 32-32 32-32-14.368-32-32zm241.12 197.504c-3.136 3.136-7.232 4.672-11.328 4.672s-8.192-1.568-11.328-4.672c-48.384-48.384-132.672-48.384-181.024 0-6.24 6.24-16.384 6.24-22.624 0s-6.24-16.384 0-22.624C173.088 336.672 213.248 320 256 320s82.912 16.672 113.12 46.88c6.24 6.24 6.24 16.384 0 22.624zM352 224c-17.632 0-32-14.368-32-32s14.368-32 32-32c17.632 0 32 14.368 32 32s-14.368 32-32 32z"/></svg>