<svg version="1.1" id="Warstwa_1" xmlns="http://www.w3.org/2000/svg" x="0" y="0" viewBox="0 0 500 500" xml:space="preserve"><style>.st0{fill:#262626}.st1{fill:#ee1f61}</style><path id="XMLID_16_" class="st0" d="M494.4 41.4c0-25.4-10.3-35.8-35.5-35.8H92.7C68 5.6 57.8 15.8 57.8 40.7c-.1 48-.1 95.9-.1 143.9 0 28.8 18.4 43.4 46.5 36.2 3.4-.9 7.6-6 8-9.5.3-2.6-4.4-7.1-7.8-8.5-3.8-1.6-8.6-.6-12.9-.7-12-.2-14.9-2.8-14.9-14.8-.1-49-.1-98.1 0-147.1 0-12.7 2.7-15.2 15.5-15.2 36-.1 71.9 0 107.9 0h259.4c13.4 0 15.7 1.9 15.7 13.5.1 50.1 0 100.3.1 150.4 0 9.2-3.9 13.3-13.1 13.1-17.8-.2-35.6-.7-53.4.3-6.2.3-13.3 3.4-17.9 7.5-9.1 8-16.9 17.7-26.3 27.9-10.6-11-18.9-20.6-28.4-28.9-4.2-3.7-10.6-6.4-16.2-6.6-20.3-.8-40.7-.1-61-.5-3.2-.1-8.1-2-9.4-4.6-9.3-17.5-24.5-25.8-42.8-30.8-9.4-2.6-14.4-.1-17.5 8.8-4.8 14.1-11 27.7-15 42-8.7 31.2-28.5 51.5-55.9 61.5-10-2.9-18-6.9-26.2-7.3-18.8-1-37.8-.5-56.7-.3-18.4.2-29.2 11-29.2 29.2-.2 54.9-.2 109.7 0 164.6.1 17.5 11.2 28.6 28.6 28.9 19.3.3 38.5.7 57.8-.3 6.8-.3 13.3-4.8 20-6.8 3.9-1.2 8.4-2.6 12.2-1.8 12.8 2.4 25.4 8 38.1 8.3 46.1 1.1 92.3.9 138.4.4 23.4-.3 38.7-22.5 32.3-45.1-.7-2.3-1.4-4.7-2-6.9 34.2-16.4 19.8-51.1 19.8-51.1s18.2-4.2 18.2-36.8c0-24.6-19.6-30.9-19.6-30.9 11.2-58.3-41.5-52.1-41.5-52.1s-30.5.3-45.8.3h-20.5c5.1-17.4 9.7-32.9 14.7-49.6 20.6 0 43.1-3.5 63.7 1.3 12.1 2.8 21.2 18.8 31.7 28.8l1.5 1.5c6.7 7.6 13.1 7.4 20.3.1 10.7-10.8 20.1-25.4 33.2-30.5 13.5-5.3 30.8-1.4 46.4-1.4 2.5 0 5.1 0 7.6-.1 22.3-.3 33.1-11.4 33.1-33.9V41.4zM88 474.8c-16.7.1-33.4-.2-50.1.1-8.6.2-12.7-2.9-12.7-12 .2-53.4.1-106.8-.1-160.2 0-8.9 3.6-12.8 12.4-12.4 5 .2 9.5 0 16.5 0v12.4c0 33.8.1 67.6 0 101.3 0 7 2.2 12.9 10.1 12.8 7.2-.2 9.3-5.7 9.1-12.3-.1-2.5-.2-5.1-.2-7.6V291.1c2-.4 4.8-.8 6.6-.9 21.8-1 22.5-.4 22.5 21.6 0 49.4.1 98.8 0 148.2 0 13.5-1.2 14.7-14.1 14.8zm220.8-184.6c3.3 0 6.6-.1 9.8.3 9.2 1 14.6 6.1 14.9 15.6.3 8.9-6 15.5-15.8 15.8-15.2.4-30.5.2-45.8.1-7.3 0-15 .4-14.8 10 .2 8.7 7.4 9.4 14.4 9.4 21.1 0 42.1 0 63.2.1 12.2.1 19.5 6 19.6 15.6.1 9.5-7.2 15.9-19.3 16-19.3.2-38.5.1-57.8.1-2.9 0-5.8 0-8.7.1-6.5.3-12.7 2.8-11.1 9.9.8 3.6 7.1 8.3 11.1 8.6 15.5 1 31.2.2 46.8.5 4.2.1 10.1.2 12.3 2.7 3.8 4.5 7.3 11 7.2 16.5-.2 8.1-7.1 12.4-15.2 12.6-16.4.3-32.7.2-49 .1-6.7 0-13.2.9-13.5 9-.3 8.9 6.6 10.1 13.6 10.2 9.1.1 18.2-.2 27.2.1 11.4.3 18.1 6.5 17.9 16.1-.2 9.2-6.6 15.2-17.5 15.3-44.3.1-88.6 0-133-.1-2.9 0-5.8-.3-8.7-.7-33.3-4.9-35.2-7.1-35.2-40.1 0-41.8.1-83.5-.1-125.3 0-6 .8-10.3 7.1-12.9 35.5-14.8 56.2-42.1 66.1-78.6 2.7-10.1 7-19.7 10.8-30.1 25.3 7.3 35.1 25.2 27.7 48.8-3.7 11.8-7.7 23.4-11.7 35.1-5.3 15.8-2.7 19.4 14.3 19.5 24.5-.2 48.8-.3 73.2-.3zM54.3 442.3c3.4 2.9 6.6 7.7 10.4 8.2 2.9.4 6.5-4.6 12.6-9.4-6.7-3.9-10.8-8.1-14.4-7.8-3.2.4-5.8 5.8-8.6 9z"/><path id="XMLID_1963_" class="st1" d="M194.5 88.1c-11.8-1.5-18.3-6.2-23.1-17.1-5.5-12.4-20.9-13.1-26.6-1.3-5.6 11.6-12.5 17.3-25.6 18.8-12.8 1.5-17.3 15.6-8.1 24.6 9.1 8.9 15 17.3 9.5 28.4-.7 14.8 10.9 23 22.5 16.5 10.2-5.7 18.4-6.8 28.8-.3 4 2.5 12.8 1.8 16.7-1.1 3.8-2.9 6.6-11 5.5-15.9-2.5-10.9.2-18 8.3-25.5 11.4-10.7 7.3-25.1-7.9-27.1zm-19.7 50.1c-11.8-8-22-9-34.6 1.2 4.3-14.7 2.2-25-11.2-33.9 15.7-.3 24.3-6.3 28.7-20.8 4.7 14 12.3 20.8 25.9 21.4-10.5 8.2-12.6 18.3-8.8 32.1z"/><path id="XMLID_2_" class="st1" d="M312.2 88.1c-11.8-1.5-18.3-6.2-23.1-17.1-5.5-12.4-20.9-13.1-26.6-1.3-5.6 11.6-12.5 17.3-25.6 18.9-12.8 1.5-17.3 15.6-8.1 24.6 9.1 8.9 15 17.3 9.5 28.4-.7 14.8 10.9 23 22.5 16.5 10.2-5.7 18.4-6.8 28.8-.3 4 2.5 12.8 1.8 16.7-1.1 3.8-2.9 6.6-11 5.5-15.9-2.5-10.9.2-18 8.3-25.5 11.5-10.8 7.3-25.2-7.9-27.2zm-19.7 50.1c-11.8-8-22-9-34.6 1.2 4.3-14.7 2.2-25-11.2-33.9 15.7-.3 24.3-6.3 28.7-20.8 4.7 14 12.3 20.8 25.9 21.4-10.5 8.2-12.5 18.3-8.8 32.1z"/><path id="XMLID_6_" class="st0" d="M430 88.1c-11.8-1.5-18.3-6.2-23.1-17.1-5.5-12.4-20.9-13.1-26.6-1.3-5.6 11.6-12.5 17.3-25.6 18.8-12.8 1.5-17.3 15.6-8.1 24.6 9.1 8.9 15 17.3 9.5 28.4-.7 14.8 10.9 23 22.5 16.5 10.2-5.7 18.4-6.8 28.8-.3 4 2.5 12.8 1.8 16.7-1.1 3.8-2.9 6.6-11 5.5-15.9-2.5-10.9.2-18 8.3-25.5 11.4-10.7 7.3-25.1-7.9-27.1zm-19.8 50.1c-11.8-8-22-9-34.6 1.2 4.3-14.7 2.2-25-11.2-33.9 15.7-.3 24.3-6.3 28.7-20.8 4.7 14 12.3 20.8 25.9 21.4-10.5 8.2-12.5 18.3-8.8 32.1z"/></svg>