<svg xmlns="http://www.w3.org/2000/svg" width="720" height="1358">
    <path d="M500.13 182.337c-15.2 0-28.768 2.778-39.465 7.324-27.895 11.855-37.225 36.1-47.163 62.46a4.394 4.394 0 01-4.609 2.815c-10.158-1.158-20.287-2.313-30.177-3.234-12.339-1.15-24.21-1.926-35.271-1.926-11.163 0-21.517.79-30.706 2.789-25.367 5.519-42.348 20.362-60.191 36.058a4.396 4.396 0 01-.267.218c-28.945 21.69-56.84 42.674-70.505 63.99-2.772 4.321-4.966 8.68-6.765 13.037a.601.601 0 00-.016.042h-.002c-3.678 8.92-5.687 17.77-7.647 26.443l-.053.235-.053.235c-1.673 7.402-3.361 14.809-6.129 21.51-7.678 18.591-23.242 30.997-38.748 40.682-3.3 2.062-6.623 4.015-9.788 5.875l-.097.057a.564.564 0 00-.017.008c-12.632 7.42-20.666 12.512-22.098 17.577-1.72 6.081 6.018 14.813 17.953 26.994a4.393 4.393 0 01.4 5.68c-6.26 8.504-10.972 15.224-11.058 20.763-.04 2.593.953 5.215 2.21 8.349l.16.397.184.457c.772 1.924 1.717 4.47 1.7 6.821a8.128 8.128 0 01-.637 3.156l-.002.006a8.218 8.218 0 01-1.48 2.274c-1.537 1.693-3.837 2.881-5.376 3.672l-.29.148a.551.551 0 00-.02.01c-3.346 1.727-4.75 2.696-5.182 3.92l-.006.019a3.695 3.695 0 00-.149.629c-.242 1.538 0 3.733.488 7.54l.012.095.013.097c.721 5.62 1.69 13.302.197 22.793-.588 3.732-1.552 7.704-2.488 11.564l-.029.117c-3.528 14.537-5.93 26.327 2.046 33.55v.001c4.059 3.675 11.194 6.631 20.712 9.226a.575.575 0 00.038.01c7.878 2.145 16.879 3.92 26.212 5.757a.594.594 0 00.038.007h-.001l.048.01.086.016c9.511 1.872 19.375 3.817 28.352 6.263 28.405 7.742 48.229 20.567 62.625 40.464 4.21 5.818 7.91 12.177 11.308 18.754 4.069 7.873 7.753 16.154 11.357 24.256l.033.074c3.59 8.07 7.1 15.957 10.901 23.314 10.826 20.95 24.152 37.87 37.76 55.129a4.393 4.393 0 01-.153 5.622l-.018.022c-17.68 20.086-34.495 39.307-41.164 65.55-6.724 26.456-3.264 60.382.396 95.46a.603.603 0 00.03.137h-.002c7.013 34.057 14.068 68.364 17.803 106.526 3.598 36.749 4.11 77.012 4.503 117.193a.607.607 0 00.64.6h.004l449.605.686a.607.607 0 00.608-.607v-.008l-3.777-313.985a.607.607 0 00-.34-.642c-91.512-43.651-183.148-87.45-233.105-121.726-51.123-35.076-59.221-60.608-67.047-85.883a4.393 4.393 0 013.229-5.585c19.362-4.372 38.079-8.618 60.683-24.474 22.786-15.984 49.514-43.78 66.978-81.07 17.489-37.34 25.79-84.324 34.18-132.115l.002-.014.048-.274a4.393 4.393 0 014.658-3.62c5.653.426 11.177.833 16.627.833 12.611 0 24.875-2.178 37.758-11.309 18.681-13.24 38.749-41.13 28.63-85.247-10.32-45-51.874-106.763-97.063-137.898-23.527-16.209-48.013-24.078-70.1-26.137-4.08-.38-8.074-.562-11.96-.562z"/>
</svg>
