<svg height="512pt" viewBox="-4 0 512 512.00003" width="512pt" xmlns="http://www.w3.org/2000/svg"><path d="m494.933594 59.734375h-51.199219v-51.199219c0-4.714844-3.820313-8.535156-8.535156-8.535156-4.710938 0-8.53125 3.820312-8.53125 8.535156v51.199219h-341.335938c-18.851562 0-34.132812 15.28125-34.132812 34.132813v341.332031h-42.664063c-4.714844 0-8.535156 3.820312-8.535156 8.535156 0 4.710937 3.820312 8.53125 8.535156 8.53125h42.664063v51.199219c0 4.714844 3.820312 8.535156 8.535156 8.535156 4.710937 0 8.53125-3.820312 8.53125-8.535156v-51.199219h341.335937c18.851563 0 34.132813-15.28125 34.132813-34.132813v-341.332031h51.199219c4.710937 0 8.53125-3.820312 8.53125-8.535156 0-4.710937-3.820313-8.53125-8.53125-8.53125zm-68.265625 358.398437c0 9.425782-7.640625 17.066407-17.066407 17.066407h-341.335937v-341.332031c0-9.425782 7.640625-17.066407 17.066406-17.066407h341.335938zm0 0"/><path fill="#f24167" d="m119.464844 401.066406h256c9.425781 0 17.070312-7.640625 17.070312-17.066406v-256c0-9.425781-7.644531-17.066406-17.070312-17.066406h-256c-9.421875 0-17.066406 7.640625-17.066406 17.066406v256c0 9.425781 7.644531 17.066406 17.066406 17.066406zm0-17.066406v-30.898438l68.398437-69.660156 35.164063 35.839844-24.199219 24.613281c-2.339844 2.128907-3.308594 5.375-2.519531 8.433594.785156 3.0625 3.203125 5.4375 6.277344 6.175781 3.074218.734375 6.304687-.289062 8.390624-2.664062l113.425782-115.082032 51.0625 51.679688v91.5625zm256-256v140.160156l-42.015625-42.523437c-2.394531-2.441407-5.671875-3.8125-9.089844-3.800781-3.421875.007812-6.691406 1.398437-9.070313 3.855468l-80.28125 81.449219-38.09375-38.835937c-2.394531-2.441407-5.675781-3.808594-9.09375-3.800782-3.421874.011719-6.691406 1.40625-9.074218 3.859375l-59.28125 60.375v-200.738281zm0 0"/><path d="m187.734375 238.933594c23.5625 0 42.664063-19.101563 42.664063-42.667969 0-23.5625-19.101563-42.664063-42.664063-42.664063-23.566406 0-42.667969 19.101563-42.667969 42.664063.027344 23.554687 19.113282 42.640625 42.667969 42.667969zm0-68.265625c14.136719 0 25.597656 11.460937 25.597656 25.597656 0 14.140625-11.460937 25.601563-25.597656 25.601563-14.140625 0-25.601563-11.460938-25.601563-25.601563 0-14.136719 11.460938-25.597656 25.601563-25.597656zm0 0"/></svg>