<?xml version="1.0" encoding="utf-8"?>
<!-- Generator: Adobe Illustrator 19.0.0, SVG Export Plug-In . SVG Version: 6.00 Build 0)  -->
<svg version="1.1" id="Warstwa_1" xmlns="http://www.w3.org/2000/svg" xmlns:xlink="http://www.w3.org/1999/xlink" x="0px" y="0px"
	 viewBox="0 0 500 500" style="enable-background:new 0 0 500 500;" xml:space="preserve">
<style type="text/css">
	.st0{fill:#0b0033;}
	.st1{fill:#ee1f61;}
</style>
<path id="XMLID_16_" class="st0" d="M494.4,41.4c0-25.4-10.3-35.8-35.5-35.8c-122.1,0-244.1,0-366.2,0c-24.7,0-34.9,10.2-34.9,35.1
	c-0.1,48-0.1,95.9-0.1,143.9c0,28.8,18.4,43.4,46.5,36.2c3.4-0.9,7.6-6,8-9.5c0.3-2.6-4.4-7.1-7.8-8.5c-3.8-1.6-8.6-0.6-12.9-0.7
	c-12-0.2-14.9-2.8-14.9-14.8c-0.1-49-0.1-98.1,0-147.1c0-12.7,2.7-15.2,15.5-15.2c36-0.1,71.9,0,107.9,0c86.5,0,172.9,0,259.4,0
	c13.4,0,15.7,1.9,15.7,13.5c0.1,50.1,0,100.3,0.1,150.4c0,9.2-3.9,13.3-13.1,13.1c-17.8-0.2-35.6-0.7-53.4,0.3
	c-6.2,0.3-13.3,3.4-17.9,7.5c-9.1,8-16.9,17.7-26.3,27.9c-10.6-11-18.9-20.6-28.4-28.9c-4.2-3.7-10.6-6.4-16.2-6.6
	c-20.3-0.8-40.7-0.1-61-0.5c-3.2-0.1-8.1-2-9.4-4.6c-9.3-17.5-24.5-25.8-42.8-30.8c-9.4-2.6-14.4-0.1-17.5,8.8
	c-4.8,14.1-11,27.7-15,42c-8.7,31.2-28.5,51.5-55.9,61.5c-10-2.9-18-6.9-26.2-7.3c-18.8-1-37.8-0.5-56.7-0.3
	c-18.4,0.2-29.2,11-29.2,29.2c-0.2,54.9-0.2,109.7,0,164.6c0.1,17.5,11.2,28.6,28.6,28.9c19.3,0.3,38.5,0.7,57.8-0.3
	c6.8-0.3,13.3-4.8,20-6.8c3.9-1.2,8.4-2.6,12.2-1.8c12.8,2.4,25.4,8,38.1,8.3c46.1,1.1,92.3,0.9,138.4,0.4
	c23.4-0.3,38.7-22.5,32.3-45.1c-0.7-2.3-1.4-4.7-2-6.9c34.2-16.4,19.8-51.1,19.8-51.1s18.2-4.2,18.2-36.8
	c0-24.6-19.6-30.9-19.6-30.9c11.2-58.3-41.5-52.1-41.5-52.1s-30.5,0.3-45.8,0.3c-6.6,0-13.3,0-20.5,0c5.1-17.4,9.7-32.9,14.7-49.6
	c20.6,0,43.1-3.5,63.7,1.3c12.1,2.8,21.2,18.8,31.7,28.8c0.5,0.5,1,1,1.5,1.5c6.7,7.6,13.1,7.4,20.3,0.1
	c10.7-10.8,20.1-25.4,33.2-30.5c13.5-5.3,30.8-1.4,46.4-1.4c2.5,0,5.1,0,7.6-0.1c22.3-0.3,33.1-11.4,33.1-33.9
	C494.4,138.8,494.4,90.1,494.4,41.4z M88,474.8c-16.7,0.1-33.4-0.2-50.1,0.1c-8.6,0.2-12.7-2.9-12.7-12
	c0.2-53.4,0.1-106.8-0.1-160.2c0-8.9,3.6-12.8,12.4-12.4c5,0.2,9.5,0,16.5,0v12.4c0,33.8,0.1,67.6,0,101.3c0,7,2.2,12.9,10.1,12.8
	c7.2-0.2,9.3-5.7,9.1-12.3c-0.1-2.5-0.2-5.1-0.2-7.6V291.1c2-0.4,4.8-0.8,6.6-0.9c21.8-1,22.5-0.4,22.5,21.6
	c0,49.4,0.1,98.8,0,148.2C102.1,473.5,100.9,474.7,88,474.8z M308.8,290.2c3.3,0,6.6-0.1,9.8,0.3c9.2,1,14.6,6.1,14.9,15.6
	c0.3,8.9-6,15.5-15.8,15.8c-15.2,0.4-30.5,0.2-45.8,0.1c-7.3,0-15,0.4-14.8,10c0.2,8.7,7.4,9.4,14.4,9.4c21.1,0,42.1,0,63.2,0.1
	c12.2,0.1,19.5,6,19.6,15.6c0.1,9.5-7.2,15.9-19.3,16c-19.3,0.2-38.5,0.1-57.8,0.1c-2.9,0-5.8,0-8.7,0.1c-6.5,0.3-12.7,2.8-11.1,9.9
	c0.8,3.6,7.1,8.3,11.1,8.6c15.5,1,31.2,0.2,46.8,0.5c4.2,0.1,10.1,0.2,12.3,2.7c3.8,4.5,7.3,11,7.2,16.5
	c-0.2,8.1-7.1,12.4-15.2,12.6c-16.4,0.3-32.7,0.2-49,0.1c-6.7,0-13.2,0.9-13.5,9c-0.3,8.9,6.6,10.1,13.6,10.2
	c9.1,0.1,18.2-0.2,27.2,0.1c11.4,0.3,18.1,6.5,17.9,16.1c-0.2,9.2-6.6,15.2-17.5,15.3c-44.3,0.1-88.6,0-133-0.1
	c-2.9,0-5.8-0.3-8.7-0.7c-33.3-4.9-35.2-7.1-35.2-40.1c0-41.8,0.1-83.5-0.1-125.3c0-6,0.8-10.3,7.1-12.9
	c35.5-14.8,56.2-42.1,66.1-78.6c2.7-10.1,7-19.7,10.8-30.1c25.3,7.3,35.1,25.2,27.7,48.8c-3.7,11.8-7.7,23.4-11.7,35.1
	c-5.3,15.8-2.7,19.4,14.3,19.5C260.1,290.3,284.4,290.2,308.8,290.2z M54.3,442.3c3.4,2.9,6.6,7.7,10.4,8.2
	c2.9,0.4,6.5-4.6,12.6-9.4c-6.7-3.9-10.8-8.1-14.4-7.8C59.7,433.7,57.1,439.1,54.3,442.3z"/>
<path id="XMLID_1963_" class="st1" d="M194.5,88.1c-11.8-1.5-18.3-6.2-23.1-17.1c-5.5-12.4-20.9-13.1-26.6-1.3
	c-5.6,11.6-12.5,17.3-25.6,18.8c-12.8,1.5-17.3,15.6-8.1,24.6c9.1,8.9,15,17.3,9.5,28.4c-0.7,14.8,10.9,23,22.5,16.5
	c10.2-5.7,18.4-6.8,28.8-0.3c4,2.5,12.8,1.8,16.7-1.1c3.8-2.9,6.6-11,5.5-15.9c-2.5-10.9,0.2-18,8.3-25.5
	C213.8,104.5,209.7,90.1,194.5,88.1z M174.8,138.2c-11.8-8-22-9-34.6,1.2c4.3-14.7,2.2-25-11.2-33.9c15.7-0.3,24.3-6.3,28.7-20.8
	c4.7,14,12.3,20.8,25.9,21.4C173.1,114.3,171,124.4,174.8,138.2z"/>
<path id="XMLID_2_" class="st1" d="M312.2,88.1c-11.8-1.5-18.3-6.2-23.1-17.1c-5.5-12.4-20.9-13.1-26.6-1.3
	C256.9,81.3,250,87,236.9,88.6c-12.8,1.5-17.3,15.6-8.1,24.6c9.1,8.9,15,17.3,9.5,28.4c-0.7,14.8,10.9,23,22.5,16.5
	c10.2-5.7,18.4-6.8,28.8-0.3c4,2.5,12.8,1.8,16.7-1.1c3.8-2.9,6.6-11,5.5-15.9c-2.5-10.9,0.2-18,8.3-25.5
	C331.6,104.5,327.4,90.1,312.2,88.1z M292.5,138.2c-11.8-8-22-9-34.6,1.2c4.3-14.7,2.2-25-11.2-33.9c15.7-0.3,24.3-6.3,28.7-20.8
	c4.7,14,12.3,20.8,25.9,21.4C290.8,114.3,288.8,124.4,292.5,138.2z"/>
<path id="XMLID_6_" class="st0" d="M430,88.1c-11.8-1.5-18.3-6.2-23.1-17.1c-5.5-12.4-20.9-13.1-26.6-1.3
	c-5.6,11.6-12.5,17.3-25.6,18.8c-12.8,1.5-17.3,15.6-8.1,24.6c9.1,8.9,15,17.3,9.5,28.4c-0.7,14.8,10.9,23,22.5,16.5
	c10.2-5.7,18.4-6.8,28.8-0.3c4,2.5,12.8,1.8,16.7-1.1c3.8-2.9,6.6-11,5.5-15.9c-2.5-10.9,0.2-18,8.3-25.5
	C449.3,104.5,445.2,90.1,430,88.1z M410.2,138.2c-11.8-8-22-9-34.6,1.2c4.3-14.7,2.2-25-11.2-33.9c15.7-0.3,24.3-6.3,28.7-20.8
	c4.7,14,12.3,20.8,25.9,21.4C408.5,114.3,406.5,124.4,410.2,138.2z"/>
</svg>
