<?xml version='1.0' encoding='utf-8'?>
<svg xmlns="http://www.w3.org/2000/svg" version="1.1" width="720px" height="1358px" viewBox="0 0 720 1358"> <g id="layer1"> <g style="fill:rgb(0,0,0); fill-opacity:1.0; stroke-linejoin: miter"> <path d="M500.13013,182.33717C484.93042,182.33717,471.3623,185.11539,460.6646,189.66148C432.7697,201.51572,423.4397,225.76108,413.5016,252.12125L413.5016,252.12125C412.85123,253.8464,411.20282,254.96484,409.39362,254.96484C409.2285,254.96484,409.06067,254.95544,408.8932,254.93634L408.8932,254.93634C398.7347,253.77798,388.60565,252.62341,378.71622,251.70166C366.37717,250.5516,354.5065,249.77576,343.44473,249.77576C332.28232,249.77576,321.92838,250.56567,312.73862,252.56497C287.37183,258.08377,270.39066,272.92682,252.54794,288.6235L252.54791,288.6235C252.46194,288.69913,252.3725,288.77182,252.28073,288.84058L252.2807,288.8406C223.33646,310.53073,195.44095,331.51532,181.77614,352.83008L181.77547,352.83008C179.00436,357.1524,176.80998,361.51163,175.01073,365.86823C175.00502,365.88205,174.99983,365.89606,174.99518,365.91022L174.99342,365.91022C171.31451,374.83054,169.30562,383.6803,167.346,392.35284L167.346,392.3529L167.29294,392.58777L167.29295,392.5877L167.23985,392.82266L167.23984,392.82266C165.56726,400.2247,163.87885,407.632,161.1112,414.3334C153.43346,432.92398,137.86888,445.32956,122.36314,455.01532L122.3631,455.01532C119.06305,457.07672,115.74008,459.02966,112.57506,460.8897L112.57495,460.88977L112.4783,460.9466L112.47717,460.9466C112.47191,460.94946,112.466675,460.95245,112.46147,460.9555C99.82945,468.37524,91.79469,473.4674,90.36252,478.53247C88.64312,484.6134,96.38101,493.34497,108.31618,505.52643L108.316185,505.52643C109.82402,507.06537,109.99326,509.47058,108.715965,511.20563L108.71597,511.20563C102.45507,519.7097,97.7439,526.4302,97.65831,531.96857C97.618256,534.5621,98.61073,537.1843,99.86713,540.31757L99.86752,540.31757C99.91095,540.42584,99.980606,540.59827,100.0278,540.715L100.02782,540.715C100.08115,540.847,100.15521,541.0303,100.211914,541.17163L100.211914,541.17163C100.98384,543.09607,101.92909,545.6425,101.91138,547.9934C101.90392,548.98126,101.73915,550.06555,101.27519,551.14935L101.2729,551.1548L101.27287,551.1548C100.883255,552.06287,100.350525,552.8139,99.793335,553.4292L99.79248,553.4292C98.25633,555.12244,95.95602,556.31036,94.41667,557.10065L94.416626,557.1007C94.26685,557.1776,94.25762,557.1822,94.1279,557.2492L94.12696,557.2492C94.120026,557.25244,94.11315,557.2558,94.10633,557.25934C90.76068,558.9864,89.35737,559.9548,88.92492,561.17883L88.91922,561.1978L88.91833,561.1978C88.865555,561.3512,88.81279,561.5545,88.7701,561.82684L88.76994,561.82684C88.52819,563.3649,88.76946,565.5598,89.258095,569.3662L89.270386,569.462L89.27039,569.46204L89.2828,569.5586C90.00427,575.1788,90.973274,582.8605,89.47952,592.35236L89.47938,592.35236C88.89198,596.08405,87.92833,600.0561,86.99157,603.9157L86.96313,604.0329C83.43504,618.5696,81.03275,630.3604,89.00935,637.58386L89.00914,637.58386C89.0092,637.5839,89.00927,637.584,89.00934,637.58405C93.067566,641.25903,100.20297,644.2153,109.72133,646.8104C109.7339,646.81384,109.74653,646.8169,109.7592,646.81946L109.7581,646.81946C117.63747,648.96484,126.63803,650.7391,135.97119,652.57745C135.98386,652.57996,135.99655,652.58203,136.00926,652.5837L136.0079,652.5837L136.05637,652.59326L136.05643,652.59326L136.14185,652.6101L136.14206,652.61017C145.65315,654.4824,155.51732,656.4267,164.49405,658.8734L164.49406,658.8734C192.89891,666.61505,212.72281,679.4402,227.11902,699.3369L227.11975,699.3369C231.32947,705.155,235.029,711.51404,238.42738,718.0908C242.49583,725.9644,246.17993,734.2455,249.7841,742.3472L249.8171,742.42145L249.81715,742.4216C253.40689,750.4909,256.9172,758.3781,260.718,765.7347L260.7186,765.7347C271.54355,786.6841,284.8696,803.6046,298.4775,820.8638C299.79044,822.52905,299.72653,824.8944,298.32535,826.4863L298.32535,826.4863L298.3065,826.5078L298.3065,826.5078C280.62637,846.59424,263.8123,865.8147,257.1426,892.05786C250.41872,918.51416,253.87947,952.4403,257.5388,987.5183C257.54367,987.5652,257.55392,987.61096,257.56912,987.65454L257.56656,987.65454C264.5801,1021.7119,271.63474,1056.0192,275.37042,1094.1814C278.96774,1130.93,279.48062,1171.193,279.87265,1211.3744C279.87454,1211.5702,279.97073,1211.753,280.131,1211.8654C280.23447,1211.9379,280.3564,1211.9755,280.47952,1211.9755C280.49094,1211.9755,280.5024,1211.9752,280.51382,1211.9745L280.51663,1211.9745L730.1219,1212.66L730.1228,1212.66C730.28357,1212.66,730.4378,1212.5963,730.5516,1212.4828C730.6656,1212.369,730.7296,1212.2145,730.7296,1212.0533L730.7296,1212.0524L730.72955,1212.045L726.95337,898.0598L726.95215,898.0598C726.9938,897.79456,726.8562,897.53357,726.6139,897.41797C635.1011,853.76697,543.46484,809.9675,493.50836,775.6919C442.385,740.61554,434.287,715.0842,426.46063,689.8095L426.4607,689.8095C426.0984,688.6394,426.2409,687.37146,426.85394,686.31116L426.85394,686.31116C427.46698,685.2508,428.49475,684.49457,429.68945,684.22473L429.68945,684.22473C449.05188,679.852,467.76892,675.60626,490.37262,659.75006C513.1587,643.76587,539.8871,615.97015,557.3515,578.68005C557.3515,578.68005,557.3515,578.68,557.3515,578.68C574.83966,541.33954,583.14075,494.35605,591.53094,446.5647L591.5308,446.5647L591.53345,446.5507L591.5815,446.2773L591.5815,446.27722C591.9526,444.1633,593.7899,442.6438,595.9044,442.6438C596.0129,442.6438,596.1287,442.64813,596.2387,442.65643C601.89166,443.08267,607.41583,443.48972,612.8665,443.48972C625.4775,443.48972,637.7413,441.312,650.6244,432.18106C669.3051,418.94113,689.37256,391.0511,679.2547,346.93387C668.93445,301.93454,627.37976,240.17143,582.1905,209.03639C558.66425,192.82701,534.17755,184.95772,512.0909,182.89912C508.0102,182.5188,504.01672,182.33717,500.13013,182.33717 Z"/> </g> </g> </svg>