<?xml version="1.0" encoding="iso-8859-1"?>
<!-- Generator: Adobe Illustrator 16.0.0, SVG Export Plug-In . SVG Version: 6.00 Build 0)  -->
<!DOCTYPE svg PUBLIC "-//W3C//DTD SVG 1.1//EN" "http://www.w3.org/Graphics/SVG/1.1/DTD/svg11.dtd">
<svg version="1.1" id="Capa_1" xmlns="http://www.w3.org/2000/svg" xmlns:xlink="http://www.w3.org/1999/xlink" x="0px" y="0px"
	 width="49.861px" height="49.861px" viewBox="0 0 49.861 49.861" style="enable-background:new 0 0 49.861 49.861;"
	 xml:space="preserve">
<g>
	<path fill="#ffffff" d="M38.834,41.747c0.181,0.555-0.527,1.154-1.028,0.791c-0.266-0.193-0.532-0.388-0.798-0.58
		c-3.859-2.803-7.716-5.606-11.575-8.409c-0.148,0.108-0.296,0.216-0.445,0.323c-3.977,2.889-7.953,5.776-11.929,8.666
		c-0.501,0.363-1.209-0.236-1.028-0.791c0.102-0.313,0.204-0.626,0.305-0.938c1.47-4.524,2.94-9.049,4.411-13.573
		c-0.11-0.079-0.22-0.159-0.331-0.239c-3.976-2.89-7.952-5.777-11.928-8.667c-0.536-0.39-0.392-1.305,0.354-1.305
		c0.329,0,0.657,0,0.986,0c4.746,0,9.491,0,14.236,0c0.046-0.141,0.092-0.283,0.138-0.424c1.509-4.641,3.017-9.284,4.525-13.926
		c0.019-0.231,0.168-0.398,0.363-0.493c0.026-0.014,0.052-0.026,0.079-0.036c0.047-0.017,0.094-0.026,0.143-0.034
		c0.038-0.006,0.075-0.012,0.113-0.012c0.052-0.001,0.1,0.006,0.151,0.016c0.037,0.007,0.072,0.014,0.107,0.026
		c0.036,0.013,0.069,0.028,0.103,0.047c0.191,0.096,0.335,0.262,0.353,0.49c0.091,0.28,0.182,0.56,0.273,0.84
		c1.463,4.503,2.926,9.006,4.389,13.509c0.159,0,0.318,0,0.478,0c4.915,0,9.829,0,14.744,0c0.747,0,0.891,0.915,0.354,1.305
		c-0.268,0.194-0.532,0.387-0.798,0.58c-3.821,2.776-7.642,5.551-11.461,8.327c0.053,0.162,0.105,0.324,0.158,0.487
		C35.797,32.398,37.314,37.073,38.834,41.747z M36.487,9.662c-0.429,1.32-0.856,2.638-1.285,3.958
		c-0.091,0.277,0.264,0.578,0.515,0.396c1.127-0.819,2.254-1.638,3.382-2.456c1.128,0.819,2.254,1.638,3.382,2.456
		c0.251,0.182,0.604-0.118,0.516-0.396c-0.43-1.32-0.857-2.639-1.286-3.958c1.108-0.805,2.216-1.61,3.325-2.415
		c0.268-0.195,0.195-0.652-0.178-0.652c-1.381,0-2.763,0-4.143,0c-0.421-1.295-0.842-2.592-1.263-3.888
		c-0.001-0.007-0.006-0.013-0.007-0.02c-0.002-0.007-0.004-0.013-0.006-0.02c0-0.001-0.001-0.002-0.002-0.003
		c-0.013-0.048-0.037-0.088-0.069-0.122c-0.005-0.005-0.009-0.008-0.014-0.013c-0.022-0.021-0.047-0.039-0.075-0.054
		c-0.018-0.01-0.035-0.019-0.056-0.026c-0.019-0.007-0.039-0.01-0.059-0.014c-0.021-0.003-0.041-0.007-0.063-0.007
		c-0.026-0.001-0.054,0.003-0.08,0.009c-0.014,0.003-0.027,0.006-0.042,0.01c-0.022,0.008-0.045,0.018-0.066,0.031
		c-0.025,0.014-0.047,0.03-0.067,0.049c-0.005,0.006-0.011,0.01-0.016,0.017c-0.033,0.035-0.058,0.076-0.07,0.124c0,0,0,0,0,0.001
		s-0.001,0.002-0.001,0.003c-0.003,0.013-0.011,0.024-0.012,0.038c-0.421,1.296-0.842,2.591-1.263,3.886c-1.381,0-2.763,0-4.143,0
		c-0.373,0-0.444,0.457-0.177,0.652C34.271,8.052,35.379,8.857,36.487,9.662z M49.523,28.884c-1.381,0-2.763,0-4.143,0
		c-0.421-1.296-0.842-2.592-1.263-3.888c-0.001-0.011-0.008-0.019-0.011-0.03c-0.001-0.003-0.002-0.006-0.003-0.009
		c0-0.001-0.001-0.001-0.001-0.002c-0.013-0.049-0.037-0.09-0.07-0.125c-0.005-0.004-0.009-0.008-0.013-0.012
		c-0.022-0.021-0.047-0.04-0.076-0.055c-0.018-0.01-0.035-0.019-0.055-0.025c-0.019-0.006-0.039-0.01-0.059-0.014
		c-0.021-0.003-0.042-0.007-0.063-0.007c-0.026-0.001-0.053,0.003-0.08,0.008c-0.014,0.003-0.027,0.006-0.042,0.01
		c-0.023,0.008-0.046,0.018-0.066,0.031c-0.025,0.013-0.045,0.03-0.066,0.048c-0.006,0.006-0.012,0.012-0.018,0.018
		c-0.032,0.034-0.056,0.073-0.068,0.12c-0.001,0.002-0.002,0.002-0.002,0.004c-0.002,0.007-0.005,0.015-0.007,0.022
		c-0.001,0.006-0.005,0.01-0.005,0.016c-0.421,1.296-0.843,2.592-1.264,3.889c-1.381,0-2.763,0-4.143,0
		c-0.373,0-0.444,0.457-0.177,0.651c1.108,0.805,2.216,1.61,3.324,2.416c-0.429,1.319-0.856,2.639-1.285,3.959
		c-0.091,0.276,0.264,0.576,0.515,0.395c1.127-0.818,2.254-1.638,3.382-2.457c1.128,0.819,2.254,1.639,3.382,2.457
		c0.251,0.184,0.604-0.117,0.516-0.395c-0.43-1.32-0.857-2.64-1.286-3.959c1.108-0.806,2.216-1.611,3.325-2.416
		C49.968,29.341,49.896,28.884,49.523,28.884z M31.189,40.288c-1.381,0-2.763,0-4.143,0c-0.421-1.296-0.842-2.592-1.263-3.889
		c-0.001-0.011-0.008-0.02-0.01-0.03c-0.001-0.003-0.002-0.005-0.003-0.009c0-0.001-0.001-0.001-0.001-0.001
		c-0.013-0.049-0.037-0.09-0.071-0.125c-0.004-0.005-0.008-0.008-0.012-0.013c-0.023-0.021-0.046-0.039-0.074-0.054
		c-0.019-0.011-0.038-0.021-0.059-0.027c-0.017-0.006-0.034-0.009-0.053-0.013c-0.024-0.004-0.046-0.008-0.07-0.007
		c-0.024,0-0.047,0.003-0.071,0.007c-0.018,0.003-0.035,0.007-0.052,0.013c-0.021,0.007-0.04,0.017-0.06,0.028
		c-0.027,0.014-0.05,0.032-0.072,0.052c-0.005,0.005-0.01,0.009-0.014,0.014c-0.033,0.034-0.056,0.075-0.069,0.122
		c0,0.001-0.001,0.002-0.002,0.003c-0.002,0.007-0.004,0.012-0.006,0.018c-0.002,0.008-0.006,0.013-0.007,0.021
		c-0.421,1.297-0.842,2.593-1.263,3.89c-1.381,0-2.763,0-4.143,0c-0.373,0-0.444,0.457-0.177,0.65
		c1.109,0.806,2.216,1.61,3.325,2.415c-0.429,1.32-0.857,2.64-1.286,3.959c-0.09,0.277,0.264,0.577,0.515,0.396
		c1.128-0.818,2.254-1.638,3.382-2.456c1.128,0.818,2.254,1.638,3.382,2.456c0.251,0.183,0.604-0.117,0.516-0.396
		c-0.43-1.318-0.857-2.639-1.286-3.959c1.108-0.805,2.216-1.609,3.325-2.415C31.635,40.745,31.562,40.288,31.189,40.288z
		 M12.034,29.532c0.268-0.194,0.196-0.651-0.177-0.651c-1.381,0-2.763,0-4.143,0c-0.421-1.295-0.841-2.591-1.262-3.885
		c-0.007-0.069-0.042-0.123-0.086-0.169c-0.003-0.004-0.006-0.006-0.01-0.01c-0.023-0.022-0.048-0.04-0.077-0.056
		c-0.019-0.01-0.037-0.019-0.057-0.026c-0.018-0.006-0.036-0.009-0.054-0.013c-0.024-0.004-0.046-0.008-0.07-0.007
		c-0.024,0-0.046,0.003-0.07,0.007c-0.019,0.003-0.036,0.007-0.054,0.013c-0.02,0.007-0.038,0.016-0.057,0.026
		c-0.029,0.015-0.054,0.034-0.078,0.056c-0.003,0.003-0.006,0.005-0.008,0.008c-0.045,0.046-0.079,0.102-0.087,0.171
		c-0.421,1.295-0.841,2.589-1.262,3.884c-1.381,0-2.763,0-4.144,0c-0.373,0-0.444,0.457-0.177,0.651
		c1.108,0.805,2.216,1.609,3.324,2.415c-0.429,1.319-0.857,2.639-1.286,3.959c-0.09,0.276,0.264,0.576,0.515,0.395
		c1.127-0.818,2.254-1.638,3.383-2.457c1.127,0.819,2.254,1.639,3.383,2.457c0.251,0.183,0.604-0.117,0.515-0.395
		c-0.429-1.318-0.857-2.639-1.286-3.958C9.816,31.142,10.924,30.336,12.034,29.532z M10.553,9.662
		c-0.429,1.32-0.857,2.638-1.286,3.958c-0.09,0.277,0.264,0.578,0.515,0.396c1.128-0.819,2.254-1.638,3.382-2.456
		c1.128,0.819,2.254,1.638,3.382,2.456c0.251,0.182,0.604-0.118,0.515-0.396c-0.429-1.32-0.857-2.639-1.286-3.958
		c1.109-0.805,2.216-1.611,3.325-2.415c0.268-0.195,0.196-0.652-0.177-0.652c-1.381,0-2.763,0-4.143,0
		c-0.421-1.295-0.842-2.591-1.263-3.888c-0.001-0.008-0.005-0.014-0.007-0.021c-0.002-0.006-0.004-0.012-0.006-0.018
		c0-0.001-0.001-0.002-0.002-0.003c-0.013-0.047-0.037-0.088-0.069-0.122c-0.005-0.005-0.009-0.01-0.014-0.014
		c-0.022-0.021-0.046-0.038-0.073-0.053c-0.019-0.011-0.037-0.02-0.058-0.027c-0.019-0.006-0.038-0.01-0.057-0.014
		c-0.021-0.004-0.042-0.007-0.063-0.007c-0.028-0.001-0.054,0.003-0.081,0.009c-0.014,0.003-0.027,0.005-0.041,0.01
		C13.021,2.455,13,2.465,12.978,2.478c-0.024,0.013-0.045,0.029-0.065,0.047c-0.006,0.006-0.013,0.012-0.019,0.019
		c-0.032,0.034-0.054,0.073-0.068,0.119c0,0.003-0.001,0.003-0.002,0.005c-0.003,0.008-0.005,0.015-0.008,0.023
		c-0.001,0.006-0.005,0.01-0.005,0.016c-0.421,1.296-0.842,2.592-1.263,3.888c-1.381,0-2.763,0-4.143,0
		c-0.373,0-0.444,0.457-0.177,0.652C8.335,8.052,9.443,8.857,10.553,9.662z"/>
</g>
<g>
</g>
<g>
</g>
<g>
</g>
<g>
</g>
<g>
</g>
<g>
</g>
<g>
</g>
<g>
</g>
<g>
</g>
<g>
</g>
<g>
</g>
<g>
</g>
<g>
</g>
<g>
</g>
<g>
</g>
</svg>
